<svg xmlns="http://www.w3.org/2000/svg" width="160" height="38" viewBox="0 0 160 38" fill="none"><path fill-rule="evenodd" clip-rule="evenodd" d="M3.04331 2.68527C4.61996 3.06395 7.62661 2.76467 11.3605 2.05005C13.1082 5.54376 14.6177 9.58718 16.1332 13.9116C16.9215 15.8966 17.9543 18.0955 18.3821 20.4104C18.4493 20.4898 18.541 20.5264 18.651 20.5203L19.9465 20.5386C19.9282 25.0157 20.0565 29.4867 20.2887 33.9638C17.8076 33.0293 15.0882 32.2474 12.3505 31.484C12.381 30.7021 12.4116 29.9142 12.4421 29.1324C12.4421 29.0225 12.3016 28.8698 12.1732 28.8698C9.80215 29.108 7.43105 29.1385 5.27385 29.0042L5.20052 34.2203L0.219998 31.8382L0 23.4643C0.0366664 23.1894 0.164999 23.0001 0.427774 22.9329L1.80276 22.9757C3.21442 19.1949 4.50385 15.4141 5.62829 11.6394L2.89053 11.56L3.04942 2.67916L3.04331 2.68527ZM8.57993 15.8356C9.80826 17.674 10.5477 19.5919 10.9877 21.577C9.9977 21.9984 8.84882 22.2122 7.57772 22.1389C7.89549 20.05 8.30494 17.9489 8.57993 15.8356Z" fill="#000000"></path><path fill-rule="evenodd" clip-rule="evenodd" d="M108.115 6.20943C109.692 6.58202 112.699 6.28884 116.439 5.57422C118.18 9.07404 119.696 13.1114 121.205 17.4357C121.994 19.4208 123.032 21.6196 123.46 23.9345C123.527 24.0139 123.619 24.0506 123.729 24.0506L125.025 24.0689C125 28.546 125.135 33.0231 125.367 37.5001C122.88 36.5656 120.166 35.7838 117.435 35.0203C117.465 34.2385 117.49 33.4506 117.52 32.6749C117.52 32.565 117.386 32.4123 117.257 32.4062C114.886 32.6505 112.515 32.681 110.352 32.5405L110.279 37.7567L105.298 35.3807L105.078 27.0068C105.115 26.7319 105.243 26.5426 105.506 26.4754L106.881 26.5182C108.293 22.7435 109.588 18.9627 110.706 15.188L107.969 15.1086L108.128 6.23387L108.115 6.20943ZM113.652 19.3597C114.88 21.2043 115.62 23.1161 116.054 25.1011C115.07 25.5226 113.915 25.7364 112.644 25.6631C112.968 23.5742 113.371 21.473 113.652 19.3597Z" fill="#000000"></path><path fill-rule="evenodd" clip-rule="evenodd" d="M74.0399 14.6809C73.5693 11.7858 73.5021 8.88455 73.5938 5.98941C73.6304 4.85334 73.5938 3.71727 73.7099 2.58121C75.6593 1.7994 77.8837 1.73221 80.377 2.37354C85.272 2.4224 89.4031 3.90662 90.7536 7.56525C91.0714 9.11054 91.0164 10.6619 90.6314 12.2133C90.1303 14.3267 88.9937 16.2323 87.6003 18.0769C88.3948 18.5778 89.4825 18.6755 90.3014 19.268C91.2059 19.9337 91.8781 21.1675 92.1103 22.4624C92.4892 24.5146 91.6947 26.5913 90.8331 28.6558L85.6876 36.993L78.8921 33.536L76.5454 14.3939L74.0338 14.6809H74.0399ZM83.2187 21.5401C83.5059 22.4074 83.5426 24.7101 83.8298 25.5774C86.2376 24.9422 85.7364 20.9415 83.2187 21.5401ZM81.7398 15.1268C82.027 15.9941 81.9048 16.7271 82.192 17.5883C84.2881 16.7943 84.2576 14.5221 81.7398 15.1268Z" fill="#000000"></path><path fill-rule="evenodd" clip-rule="evenodd" d="M17.9548 12.7447C17.4781 9.84345 17.417 6.94832 17.5087 4.04707C17.5453 2.91101 17.4964 1.77494 17.6248 0.644976C19.5742 -0.136833 21.7986 -0.210125 24.298 0.43731C29.193 0.480066 33.3241 1.97039 34.6746 5.62291C34.9985 7.17431 34.9374 8.71961 34.5524 10.271C34.0574 12.3721 32.9208 14.2839 31.5213 16.1285C32.3158 16.6354 33.4035 16.727 34.2224 17.3256C35.133 17.9853 35.7991 19.2191 36.0374 20.5139C36.4102 22.5784 35.6157 24.6429 34.7541 26.7073L29.6147 35.0446L22.8131 31.5875L20.4664 12.4454L17.9548 12.7325V12.7447ZM27.1397 19.6039C27.4269 20.4651 27.4575 22.7739 27.7447 23.6412C30.1586 23.006 29.6575 18.9992 27.1397 19.6039ZM25.6608 13.1845C25.948 14.0518 25.8258 14.7847 26.113 15.6459C28.2091 14.858 28.1786 12.5859 25.6608 13.1845Z" fill="#000000"></path><path fill-rule="evenodd" clip-rule="evenodd" d="M45.5761 31.8685C40.9928 30.1033 37.6806 28.5152 37.1367 27.3303C36.8617 22.5539 40.3145 14.7053 39.9478 11.9751C39.2267 11.9018 38.1145 12.1644 37.7845 11.7613C37.4789 9.54414 37.4606 7.24758 37.5584 4.62729C37.65 4.13866 41.4083 5.03652 42.9789 5.70228C42.7589 5.06706 42.3189 4.49903 42.49 3.79662C42.8017 3.37518 43.8528 2.95373 45.1422 3.10643C48.7294 6.45355 54.2416 16.5194 56.6127 24.0931C55.9954 26.3714 53.2088 29.1932 50.1166 32.0945C48.8883 29.4253 47.6661 26.7562 46.4377 24.0931C45.9305 23.8366 45.4294 24.197 44.9161 25.1681C45.3439 27.0005 45.46 29.4253 45.57 31.8746L45.5761 31.8685ZM44.3355 19.7504C43.81 19.0847 43.8283 17.3012 43.865 15.3466C44.9955 16.2873 45.8755 17.1362 46.3827 17.8631C45.6983 18.596 44.7572 19.3595 44.3355 19.7565V19.7504Z" fill="#000000"></path><path fill-rule="evenodd" clip-rule="evenodd" d="M148.95 35.3685C144.373 33.6033 141.049 32.0091 140.511 30.8242C140.242 26.0478 143.683 18.2053 143.328 15.469C142.607 15.3896 141.495 15.6583 141.165 15.2491C140.866 13.0319 140.847 10.7415 140.945 8.1212C141.031 7.63257 144.789 8.53042 146.365 9.19618C146.145 8.55485 145.712 7.99293 145.877 7.28442C146.188 6.86908 147.239 6.44152 148.529 6.60033C152.122 9.94745 157.634 20.0133 159.999 27.5809C159.376 29.8653 156.602 32.6871 153.503 35.5822C152.281 32.9192 151.053 30.2501 149.824 27.5809C149.317 27.3305 148.816 27.6848 148.309 28.662C148.73 30.4883 148.847 32.9192 148.957 35.3685H148.95ZM147.716 23.2443C147.19 22.5847 147.209 20.7951 147.245 18.8405C148.376 19.775 149.256 20.6301 149.763 21.357C149.073 22.0899 148.138 22.8473 147.716 23.2443Z" fill="#000000"></path><path fill-rule="evenodd" clip-rule="evenodd" d="M92.8146 18.2175C95.4485 18.2969 98.0885 18.3824 100.728 18.4618H102.213C103.637 19.2864 104.047 20.7279 103.821 21.5524C103.332 25.663 103.148 28.4971 103.448 31.3189C102.598 33.304 95.149 30.867 93.554 30.5738C93.5968 28.7658 92.2829 28.2772 92.4479 27.0801C93.4379 26.5792 94.544 26.3716 95.534 25.8768C95.4729 25.0339 95.3935 24.1239 95.2835 23.1588C94.544 23.0733 92.7107 23.3543 92.7107 22.5297C92.6313 20.9661 92.7718 20.563 92.8146 18.2114V18.2175Z" fill="#000000"></path><path fill-rule="evenodd" clip-rule="evenodd" d="M99.8437 16.5866C97.3626 16.7577 91.2943 14.571 92.0582 10.8758C92.816 7.18048 95.8654 6.12993 98.4015 6.60634C100.938 7.08887 102.899 9.75801 103.303 11.9141C103.217 15.6033 101.769 16.4523 99.8437 16.5866Z" fill="#000000"></path><path fill-rule="evenodd" clip-rule="evenodd" d="M129.401 32.6808C127.892 29.4925 127.189 22.841 126.474 18.3211H124.879C124.433 16.1467 124.751 13.5814 124.745 11.01C124.745 10.4969 125.014 10.0328 126.743 9.81287C135.353 8.76842 140.028 11.7674 139.986 16.1895C139.949 20.8926 137.486 23.4579 133.257 25.4979C133.526 26.9211 133.795 28.3381 134.058 29.7551C132.506 30.7324 130.953 31.7096 129.401 32.6808ZM131.931 20.5872C135.769 18.7059 136.252 16.0429 131.528 17.2645C131.571 18.4616 131.705 19.5672 131.931 20.5872Z" fill="#000000"></path></svg>